<?xml version="1.0" encoding="utf-8"?>
<!-- Generator: Adobe Illustrator 17.1.0, SVG Export Plug-In . SVG Version: 6.00 Build 0)  -->
<!DOCTYPE svg PUBLIC "-//W3C//DTD SVG 1.1//EN" "http://www.w3.org/Graphics/SVG/1.1/DTD/svg11.dtd">
<svg version="1.1" id="Layer_1" xmlns="http://www.w3.org/2000/svg" xmlns:xlink="http://www.w3.org/1999/xlink" x="0px" y="0px" viewBox="0 0 78.5 103.3" style="enable-background:new 0 0 78.5 103.3;" xml:space="preserve">
<style type="text/css">
	.st0{fill:#21409A;}
</style>
<g>
	<rect x="68.6" y="0.3" class="st0" width="6" height="72.3"/>
	<g>
		<rect x="76.2" y="0.3" class="st0" width="1" height="72.3"/>
	</g>
	<circle class="st0" cx="57.9" cy="33.2" r="6"/>
	<g>
		<path class="st0" d="M2.6,90.8V79.1H1v-0.5h5.9v0.5H5.2v5.3h4.4v-5.3H8.1v-0.5h5.8v0.5h-1.6v11.7h1.6v0.5H8v-0.5h1.6V85H5.2v5.8
			h1.7v0.5H1v-0.5H2.6z"/>
		<path class="st0" d="M23.4,87.9h-4L18.7,90c-0.1,0.2-0.1,0.4-0.1,0.5c0,0.2,0.2,0.3,0.6,0.3h1v0.5h-4v-0.5h0.7
			c0.3,0,0.6-0.1,0.8-0.3c0.1-0.1,0.2-0.3,0.4-0.8l4-11.1h0.6l4.3,12.2h1.4v0.5h-5.7v-0.5h1.6L23.4,87.9z M23.2,87.4l-1.8-5l-1.8,5
			H23.2z"/>
		<path class="st0" d="M32.4,90.8V79.1h-1.5v-0.5h5.6c1.3,0,2.2,0.1,2.7,0.2c0.9,0.2,1.5,0.6,1.9,1.2c0.3,0.4,0.4,0.9,0.4,1.5
			c0,1.2-0.5,2-1.5,2.5c-0.5,0.3-1.2,0.4-2.3,0.5c0.7,0.1,1.3,0.3,2,0.8c0.6,0.4,1.1,1,1.3,1.6c0.2,0.5,0.2,1.3,0.2,2.4
			c0,0.9,0.3,1.4,0.8,1.4c0.3,0,0.6-0.1,1-0.3V91c-0.9,0.3-1.7,0.4-2.1,0.4c-1.1,0-1.8-0.4-2.2-1.3c-0.2-0.4-0.3-0.8-0.4-1.3
			c0-0.2-0.1-0.6-0.1-1.1c-0.1-1.4-0.3-2.2-0.7-2.5c-0.3-0.2-0.6-0.3-0.9-0.4c-0.3,0-0.4,0-0.6-0.1h-1v6.1h1.8v0.5h-6v-0.5H32.4z
			 M35,84.3h1.4c0.6,0,1.1-0.1,1.4-0.2c0.4-0.2,0.7-0.6,0.8-1.1c0.1-0.4,0.1-0.8,0.1-1.4c0-0.9-0.2-1.6-0.5-1.9
			c-0.2-0.2-0.4-0.3-0.8-0.4c-0.2,0-0.6-0.1-1-0.1H35V84.3z"/>
		<path class="st0" d="M47.4,90.8V79.1h-1.5v-0.5h5.6c1.3,0,2.2,0.1,2.7,0.2c0.9,0.2,1.5,0.6,1.9,1.2c0.3,0.4,0.4,0.9,0.4,1.5
			c0,1.2-0.5,2-1.5,2.5c-0.5,0.3-1.2,0.4-2.3,0.5c0.7,0.1,1.3,0.3,2,0.8c0.6,0.4,1.1,1,1.3,1.6c0.2,0.5,0.2,1.3,0.2,2.4
			c0,0.9,0.3,1.4,0.8,1.4c0.3,0,0.6-0.1,1-0.3V91c-0.9,0.3-1.7,0.4-2.1,0.4c-1.1,0-1.8-0.4-2.2-1.3c-0.2-0.4-0.3-0.8-0.4-1.3
			c0-0.2-0.1-0.6-0.1-1.1c-0.1-1.4-0.3-2.2-0.7-2.5c-0.3-0.2-0.6-0.3-0.9-0.4c-0.3,0-0.4,0-0.6-0.1h-1v6.1h1.8v0.5h-6v-0.5H47.4z
			 M50.1,84.3h1.4c0.6,0,1.1-0.1,1.4-0.2c0.4-0.2,0.7-0.6,0.8-1.1c0.1-0.4,0.1-0.8,0.1-1.4c0-0.9-0.2-1.6-0.5-1.9
			c-0.2-0.2-0.4-0.3-0.8-0.4c-0.2,0-0.6-0.1-1-0.1h-1.4V84.3z"/>
		<path class="st0" d="M62.4,90.8V79.1h-1.5v-0.5h5.7v0.5h-1.5v11.7h1.5v0.5h-5.7v-0.5H62.4z"/>
		<path class="st0" d="M77.4,78.6V82h-0.6c-0.1-0.8-0.4-1.5-0.8-2c-0.6-0.7-1.3-1.1-2.3-1.1c-0.6,0-1.1,0.2-1.5,0.5
			c-0.5,0.4-0.8,1-0.8,1.7c0,0.7,0.3,1.2,0.9,1.5c0.3,0.2,0.7,0.3,1.1,0.5l1,0.3c1.5,0.4,2.5,0.9,3,1.3c0.7,0.7,1,1.6,1,2.7
			c0,1.3-0.4,2.3-1.3,3.1c-0.8,0.7-1.7,1.1-2.9,1.1c-1.1,0-2.1-0.4-3.2-1.1l-0.6,0.8H70v-3.5h0.5c0.2,0.8,0.5,1.5,1,2
			c0.7,0.8,1.6,1.2,2.6,1.2c0.8,0,1.4-0.2,1.9-0.6c0.6-0.5,0.8-1,0.8-1.7c0-0.7-0.3-1.3-0.8-1.7c-0.2-0.2-0.5-0.3-0.9-0.4
			c-0.1,0-0.5-0.2-1.3-0.4c-1.4-0.4-2.2-0.8-2.6-1c-0.8-0.6-1.2-1.5-1.2-2.7c0-1.2,0.4-2.2,1.2-2.9c0.4-0.3,0.8-0.6,1.3-0.8
			c0.5-0.2,0.9-0.3,1.4-0.3c0.9,0,1.7,0.3,2.6,0.9l0.6-0.7H77.4z"/>
	</g>
	<g>
		<path class="st0" d="M4.6,97v1.6H4.3c-0.1-0.4-0.2-0.7-0.4-0.9c-0.3-0.3-0.6-0.5-1.1-0.5c-0.3,0-0.5,0.1-0.7,0.2
			c-0.3,0.2-0.4,0.5-0.4,0.8c0,0.3,0.1,0.6,0.4,0.7c0.2,0.1,0.3,0.2,0.5,0.2l0.5,0.1c0.7,0.2,1.2,0.4,1.4,0.6
			c0.3,0.3,0.5,0.8,0.5,1.3c0,0.6-0.2,1.1-0.6,1.5c-0.4,0.3-0.8,0.5-1.4,0.5c-0.5,0-1-0.2-1.5-0.5l-0.3,0.4H1v-1.7h0.3
			c0.1,0.4,0.3,0.7,0.5,1c0.3,0.4,0.8,0.6,1.3,0.6c0.4,0,0.7-0.1,0.9-0.3c0.3-0.2,0.4-0.5,0.4-0.8c0-0.3-0.1-0.6-0.4-0.8
			c-0.1-0.1-0.3-0.1-0.5-0.2c0,0-0.2-0.1-0.6-0.2c-0.7-0.2-1.1-0.4-1.3-0.5C1.2,99.9,1,99.4,1,98.8c0-0.6,0.2-1,0.6-1.4
			c0.2-0.2,0.4-0.3,0.6-0.4C2.4,97,2.6,97,2.8,97c0.4,0,0.8,0.1,1.2,0.4L4.3,97H4.6z"/>
		<path class="st0" d="M14.3,102.9v-5.6H14c-1-0.1-1.5,0.5-1.6,1.6h-0.3l0.1-1.9h5.3l0.2,1.9h-0.3c-0.1-0.3-0.1-0.5-0.2-0.7
			c-0.1-0.4-0.3-0.6-0.6-0.8c-0.2-0.1-0.5-0.1-0.9-0.1h-0.2v5.6h0.8v0.2h-2.9v-0.2H14.3z"/>
		<path class="st0" d="M25.5,97.3h-0.7v-0.2h2.8v0.2h-0.8v3.9c0,0.4,0,0.6,0,0.8c0,0.3,0.2,0.6,0.4,0.7c0.2,0.1,0.5,0.2,0.8,0.2
			c0.6,0,1-0.2,1.2-0.5c0.1-0.1,0.2-0.3,0.2-0.5c0-0.1,0-0.4,0-0.7V98c0-0.3,0-0.5-0.1-0.6c-0.1-0.1-0.2-0.1-0.4-0.1h-0.2v-0.2h1.6
			v0.2h-0.1c-0.2,0-0.4,0-0.4,0.1c-0.1,0.1-0.1,0.3-0.1,0.6v3.3c0,0.5,0,0.8-0.1,1c-0.1,0.4-0.4,0.7-0.7,0.8
			c-0.3,0.2-0.8,0.3-1.2,0.3c-0.5,0-0.9-0.1-1.3-0.2c-0.5-0.2-0.7-0.4-0.9-0.7c-0.1-0.2-0.1-0.6-0.1-1.1V97.3z"/>
		<path class="st0" d="M38.3,102.9v-5.6h-0.7v-0.2h2.8c0.6,0,1.1,0.1,1.4,0.2c0.3,0.1,0.7,0.3,1,0.7c0.5,0.5,0.7,1.3,0.7,2.3
			c0,0.7-0.1,1.2-0.4,1.7c-0.3,0.6-0.8,1-1.3,1.2c-0.2,0.1-0.4,0.1-0.7,0.1c-0.1,0-0.3,0-0.6,0h-2.8v-0.2H38.3z M39.6,102.9h0.8
			c0.3,0,0.6,0,0.7-0.1c0.4-0.1,0.6-0.4,0.7-0.9c0.1-0.4,0.2-1.1,0.2-1.9c0-1-0.1-1.8-0.4-2.2c-0.1-0.2-0.3-0.4-0.6-0.4
			c-0.1,0-0.4,0-0.6,0h-0.8V102.9z"/>
		<path class="st0" d="M51.6,102.9v-5.6h-0.7v-0.2h2.7v0.2h-0.7v5.6h0.7v0.2h-2.7v-0.2H51.6z"/>
		<path class="st0" d="M64.1,96.9c0.6,0,1.2,0.2,1.7,0.6c0.4,0.3,0.7,0.7,0.9,1.2c0.2,0.4,0.3,0.9,0.3,1.4c0,0.8-0.2,1.5-0.7,2.1
			c-0.6,0.7-1.4,1.1-2.4,1.1c-0.7,0-1.4-0.2-1.9-0.7c-0.7-0.6-1.1-1.5-1.1-2.4c0-0.7,0.2-1.4,0.6-2C62.2,97.3,63.1,96.9,64.1,96.9z
			 M64,97.2c-0.5,0-0.9,0.2-1.2,0.7c-0.2,0.4-0.4,1.2-0.4,2.3c0,1.1,0.1,1.9,0.3,2.2c0.2,0.4,0.6,0.7,1.2,0.7c0.5,0,0.9-0.2,1.1-0.5
			c0.3-0.5,0.4-1.3,0.4-2.5c0-1.1-0.1-1.9-0.3-2.3c-0.1-0.2-0.3-0.4-0.6-0.5C64.4,97.2,64.2,97.2,64,97.2z"/>
		<path class="st0" d="M78,97v1.6h-0.3c-0.1-0.4-0.2-0.7-0.4-0.9c-0.3-0.3-0.6-0.5-1.1-0.5c-0.3,0-0.5,0.1-0.7,0.2
			c-0.3,0.2-0.4,0.5-0.4,0.8c0,0.3,0.1,0.6,0.4,0.7c0.2,0.1,0.3,0.2,0.5,0.2l0.5,0.1c0.7,0.2,1.2,0.4,1.4,0.6
			c0.3,0.3,0.5,0.8,0.5,1.3c0,0.6-0.2,1.1-0.6,1.5c-0.4,0.3-0.8,0.5-1.4,0.5c-0.5,0-1-0.2-1.5-0.5l-0.3,0.4h-0.2v-1.7h0.3
			c0.1,0.4,0.3,0.7,0.5,1c0.3,0.4,0.8,0.6,1.3,0.6c0.4,0,0.7-0.1,0.9-0.3c0.3-0.2,0.4-0.5,0.4-0.8c0-0.3-0.1-0.6-0.4-0.8
			c-0.1-0.1-0.3-0.1-0.5-0.2c0,0-0.2-0.1-0.6-0.2c-0.7-0.2-1.1-0.4-1.3-0.5c-0.4-0.3-0.6-0.7-0.6-1.3c0-0.6,0.2-1,0.6-1.4
			c0.2-0.2,0.4-0.3,0.6-0.4c0.2-0.1,0.4-0.1,0.7-0.1c0.4,0,0.8,0.1,1.2,0.4l0.3-0.3H78z"/>
	</g>
	<path class="st0" d="M44.8,15.3C42.1,8.9,38.2,4.5,33.1,2.2C30,0.7,26.4,0,22.3,0C16.9,0,12,1.2,7.9,3.7c-4.6,2.7-6.8,6.5-7.8,11.1
		c-0.5,2.3-0.3,9.8,7.4,10.3c4.1,0.3,7.5-3.4,7.5-7.5c0-4.2-3.4-7.5-7.5-7.5c-0.2,0-0.3,0-0.5,0c1.7-2.9,5.5-6.9,13.1-6.6
		c16.7,0.7,18.7,17.3,18.7,23.7c0,11.2-4.2,22.6-10.9,30c-5.6,6.2-13.7,11.2-24,15.1c7.3-0.4,14.1-2.5,20.3-6.1
		c6.5-3.8,12-9.4,16.3-16.5c4.3-7.2,6.5-14.6,6.5-22.1C47.1,23.3,46.3,19.2,44.8,15.3z"/>
</g>
</svg>
