<?xml version="1.0" encoding="utf-8"?>
<!-- Generator: Adobe Illustrator 17.1.0, SVG Export Plug-In . SVG Version: 6.00 Build 0)  -->
<!DOCTYPE svg PUBLIC "-//W3C//DTD SVG 1.1//EN" "http://www.w3.org/Graphics/SVG/1.1/DTD/svg11.dtd">
<svg version="1.1" id="Layer_1" xmlns="http://www.w3.org/2000/svg" xmlns:xlink="http://www.w3.org/1999/xlink" x="0px" y="0px" viewBox="0 0 143.5 189.3" style="enable-background:new 0 0 143.5 189.3;" xml:space="preserve"
	>
<style type="text/css">
	.st0{fill:#ffffff;}
</style>
<rect x="125.6" y="1.1" class="st0" width="11" height="132.3"/>
<g>
	<rect x="139.3" y="1.1" class="st0" width="1.8" height="132.3"/>
</g>
<circle class="st0" cx="105.9" cy="61.4" r="11"/>
<g>
	<path class="st0" d="M4.7,166.8v-21.5H1.9v-0.9h10.8v0.9H9.6v9.8h8.1v-9.8h-2.9v-0.9h10.7v0.9h-2.9v21.5h3v0.9H14.7v-0.9h3v-10.6
		H9.6v10.6h3.1v0.9H1.9v-0.9H4.7z"/>
	<path class="st0" d="M42.8,161.4h-7.3l-1.4,3.9c-0.1,0.4-0.2,0.7-0.2,0.9c0,0.4,0.4,0.6,1.1,0.6h1.9v0.9h-7.2v-0.9h1.3
		c0.6,0,1.1-0.2,1.5-0.5c0.2-0.1,0.4-0.6,0.7-1.5l7.4-20.3h1.1l8,22.3h2.5v0.9H41.7v-0.9h3L42.8,161.4z M42.5,160.6l-3.3-9.2
		l-3.3,9.2H42.5z"/>
	<path class="st0" d="M59.2,166.8v-21.5h-2.8v-0.9h10.2c2.4,0,4,0.1,4.9,0.3c1.6,0.4,2.8,1.2,3.5,2.3c0.5,0.8,0.8,1.7,0.8,2.8
		c0,2.1-0.9,3.7-2.8,4.6c-0.9,0.5-2.3,0.8-4.1,0.8c1.2,0.2,2.4,0.6,3.6,1.4c1.2,0.8,2,1.8,2.4,3c0.3,0.9,0.4,2.3,0.4,4.4
		c0,1.7,0.5,2.5,1.5,2.5c0.5,0,1.1-0.2,1.8-0.5v1c-1.7,0.5-3,0.8-3.9,0.8c-1.9,0-3.3-0.8-4-2.4c-0.3-0.7-0.5-1.5-0.7-2.4
		c0-0.4-0.1-1-0.2-2c-0.1-2.6-0.6-4.1-1.3-4.5c-0.5-0.4-1-0.6-1.6-0.6c-0.5-0.1-0.8-0.1-1.1-0.1h-1.9v11.1h3.2v0.9H56.5v-0.9H59.2z
		 M64.1,154.8h2.6c1.2,0,2-0.1,2.5-0.4c0.8-0.4,1.3-1.1,1.5-2c0.2-0.7,0.2-1.5,0.2-2.6c0-1.7-0.3-2.9-1-3.5
		c-0.4-0.3-0.8-0.5-1.4-0.7c-0.4-0.1-1-0.1-1.9-0.1h-2.6V154.8z"/>
	<path class="st0" d="M86.7,166.8v-21.5H84v-0.9h10.2c2.4,0,4,0.1,4.9,0.3c1.6,0.4,2.8,1.2,3.5,2.3c0.5,0.8,0.8,1.7,0.8,2.8
		c0,2.1-0.9,3.7-2.8,4.6c-0.9,0.5-2.3,0.8-4.1,0.8c1.2,0.2,2.4,0.6,3.6,1.4c1.2,0.8,2,1.8,2.4,3c0.3,0.9,0.4,2.3,0.4,4.4
		c0,1.7,0.5,2.5,1.5,2.5c0.5,0,1.1-0.2,1.8-0.5v1c-1.7,0.5-3,0.8-3.9,0.8c-1.9,0-3.3-0.8-4-2.4c-0.3-0.7-0.5-1.5-0.7-2.4
		c0-0.4-0.1-1-0.2-2c-0.1-2.6-0.6-4.1-1.3-4.5c-0.5-0.4-1-0.6-1.6-0.6c-0.5-0.1-0.8-0.1-1.1-0.1h-1.9v11.1h3.2v0.9H84v-0.9H86.7z
		 M91.6,154.8h2.6c1.2,0,2-0.1,2.5-0.4c0.8-0.4,1.3-1.1,1.5-2c0.2-0.7,0.2-1.5,0.2-2.6c0-1.7-0.3-2.9-1-3.5
		c-0.4-0.3-0.8-0.5-1.4-0.7c-0.4-0.1-1-0.1-1.9-0.1h-2.6V154.8z"/>
	<path class="st0" d="M114.2,166.8v-21.5h-2.8v-0.9h10.4v0.9h-2.8v21.5h2.8v0.9h-10.4v-0.9H114.2z"/>
	<path class="st0" d="M141.6,144.3v6.3h-1c-0.2-1.5-0.7-2.7-1.5-3.6c-1.1-1.3-2.5-2-4.2-2c-1.1,0-2,0.3-2.7,0.9
		c-1,0.8-1.5,1.8-1.5,3c0,1.2,0.5,2.2,1.6,2.8c0.6,0.3,1.3,0.6,2,0.8l1.9,0.5c2.8,0.8,4.6,1.6,5.5,2.4c1.3,1.2,1.9,2.9,1.9,5
		c0,2.4-0.8,4.2-2.3,5.7c-1.4,1.3-3.2,2-5.3,2c-1.9,0-3.9-0.7-5.8-2l-1.2,1.5H128v-6.4h1c0.4,1.5,1,2.7,1.9,3.7
		c1.3,1.4,2.9,2.1,4.8,2.1c1.4,0,2.5-0.4,3.4-1.2c1-0.8,1.5-1.9,1.5-3.2c0-1.3-0.5-2.3-1.5-3c-0.4-0.3-1-0.6-1.7-0.8
		c-0.1,0-0.9-0.3-2.4-0.7c-2.5-0.8-4.1-1.4-4.8-1.9c-1.5-1.1-2.2-2.7-2.2-4.9c0-2.2,0.7-4,2.1-5.3c0.6-0.6,1.4-1.1,2.4-1.4
		c0.8-0.3,1.7-0.5,2.6-0.5c1.6,0,3.1,0.5,4.7,1.6l1.1-1.2H141.6z"/>
</g>
<g>
	<path class="st0" d="M9.3,176.6v3.4H8.8c-0.1-0.8-0.4-1.5-0.8-2c-0.6-0.7-1.3-1.1-2.3-1.1c-0.6,0-1.1,0.2-1.5,0.5
		c-0.5,0.4-0.8,1-0.8,1.7c0,0.7,0.3,1.2,0.9,1.5c0.3,0.2,0.7,0.3,1.1,0.5l1,0.3c1.5,0.4,2.5,0.9,3,1.3c0.7,0.7,1,1.6,1,2.7
		c0,1.3-0.4,2.3-1.3,3.1c-0.8,0.7-1.7,1.1-2.9,1.1c-1.1,0-2.1-0.4-3.2-1.1l-0.6,0.8H1.9v-3.5h0.5c0.2,0.8,0.5,1.5,1,2
		c0.7,0.8,1.6,1.2,2.6,1.2c0.8,0,1.4-0.2,1.9-0.6c0.6-0.5,0.8-1,0.8-1.7c0-0.7-0.3-1.3-0.8-1.7c-0.2-0.2-0.5-0.3-0.9-0.4
		c-0.1,0-0.5-0.2-1.3-0.4c-1.4-0.4-2.2-0.8-2.6-1c-0.8-0.6-1.2-1.5-1.2-2.7c0-1.2,0.4-2.2,1.2-2.9c0.4-0.3,0.8-0.6,1.3-0.8
		c0.5-0.2,0.9-0.3,1.4-0.3c0.9,0,1.7,0.3,2.6,0.9l0.6-0.7H9.3z"/>
	<path class="st0" d="M25.9,188.9v-11.6h-0.5c-2-0.1-3.2,1-3.4,3.4h-0.5l0.3-4h11l0.4,3.9h-0.5c-0.1-0.6-0.2-1.1-0.4-1.5
		c-0.3-0.8-0.7-1.3-1.3-1.6c-0.4-0.2-1-0.3-1.8-0.3h-0.5v11.6h1.7v0.5h-6.1v-0.5H25.9z"/>
	<path class="st0" d="M45.7,177.1h-1.5v-0.5h5.9v0.5h-1.7v8.1c0,0.8,0,1.3,0.1,1.7c0.1,0.7,0.4,1.2,0.9,1.5c0.4,0.3,1,0.5,1.7,0.5
		c1.2,0,2-0.4,2.5-1.1c0.2-0.3,0.3-0.6,0.4-1c0.1-0.3,0.1-0.8,0.1-1.5v-6.8c0-0.6-0.1-1-0.2-1.2c-0.1-0.1-0.4-0.2-0.8-0.2h-0.5v-0.5
		H56v0.5h-0.3c-0.4,0-0.7,0.1-0.9,0.2c-0.1,0.1-0.2,0.5-0.2,1.2v6.8c0,1-0.1,1.6-0.2,2c-0.3,0.8-0.8,1.4-1.5,1.7
		c-0.7,0.4-1.6,0.5-2.6,0.5c-0.9,0-1.8-0.2-2.6-0.5c-0.9-0.4-1.5-0.9-1.8-1.5c-0.2-0.4-0.3-1.2-0.3-2.3V177.1z"/>
	<path class="st0" d="M68.8,188.9v-11.7h-1.5v-0.5h5.9c1.3,0,2.2,0.1,2.8,0.3c0.7,0.2,1.4,0.7,2,1.4c1,1.1,1.5,2.7,1.5,4.8
		c0,1.4-0.3,2.6-0.8,3.6c-0.7,1.2-1.6,2-2.8,2.4c-0.4,0.1-0.9,0.2-1.5,0.2c-0.3,0-0.7,0-1.3,0h-5.9v-0.5H68.8z M71.4,188.9h1.8
		c0.7,0,1.2-0.1,1.5-0.2c0.7-0.3,1.3-0.9,1.5-1.8c0.2-0.9,0.4-2.2,0.4-4.1c0-2.2-0.3-3.7-0.8-4.5c-0.3-0.5-0.7-0.8-1.3-0.9
		c-0.3-0.1-0.7-0.1-1.3-0.1h-1.8V188.9z"/>
	<path class="st0" d="M92.8,188.9v-11.7h-1.5v-0.5h5.7v0.5h-1.5v11.7h1.5v0.5h-5.7v-0.5H92.8z"/>
	<path class="st0" d="M115.1,176.4c1.3,0,2.5,0.4,3.5,1.2c0.8,0.6,1.4,1.4,1.9,2.4c0.4,0.9,0.6,1.9,0.6,2.9c0,1.7-0.5,3.2-1.4,4.4
		c-1.2,1.5-2.8,2.3-4.9,2.3c-1.6,0-2.9-0.5-3.9-1.4c-1.5-1.3-2.2-3-2.2-5.1c0-1.6,0.4-2.9,1.3-4.1
		C111.3,177.2,113,176.4,115.1,176.4z M114.9,176.9c-1.1,0-1.9,0.5-2.4,1.4c-0.5,0.9-0.8,2.5-0.8,4.8c0,2.3,0.2,3.9,0.7,4.7
		c0.5,0.9,1.3,1.4,2.5,1.4c1.1,0,1.8-0.4,2.3-1.1c0.6-1,0.9-2.7,0.9-5.1c0-2.3-0.2-3.9-0.7-4.7c-0.3-0.5-0.7-0.9-1.2-1
		C115.9,177,115.4,176.9,114.9,176.9z"/>
	<path class="st0" d="M140.6,176.6v3.4H140c-0.1-0.8-0.4-1.5-0.8-2c-0.6-0.7-1.3-1.1-2.3-1.1c-0.6,0-1.1,0.2-1.5,0.5
		c-0.5,0.4-0.8,1-0.8,1.7c0,0.7,0.3,1.2,0.9,1.5c0.3,0.2,0.7,0.3,1.1,0.5l1,0.3c1.5,0.4,2.5,0.9,3,1.3c0.7,0.7,1,1.6,1,2.7
		c0,1.3-0.4,2.3-1.3,3.1c-0.8,0.7-1.7,1.1-2.9,1.1c-1.1,0-2.1-0.4-3.2-1.1l-0.6,0.8h-0.5v-3.5h0.5c0.2,0.8,0.5,1.5,1,2
		c0.7,0.8,1.6,1.2,2.6,1.2c0.8,0,1.4-0.2,1.9-0.6c0.6-0.5,0.8-1,0.8-1.7c0-0.7-0.3-1.3-0.8-1.7c-0.2-0.2-0.5-0.3-0.9-0.4
		c-0.1,0-0.5-0.2-1.3-0.4c-1.4-0.4-2.2-0.8-2.6-1c-0.8-0.6-1.2-1.5-1.2-2.7c0-1.2,0.4-2.2,1.2-2.9c0.4-0.3,0.8-0.6,1.3-0.8
		c0.5-0.2,0.9-0.3,1.4-0.3c0.9,0,1.7,0.3,2.6,0.9l0.6-0.7H140.6z"/>
</g>
<path class="st0" d="M81.9,28.6c-4.8-11.7-12-19.8-21.4-24.1c-5.6-2.6-12.2-4-19.7-4c-10,0-18.8,2.3-26.3,6.7
	C6.2,12.2,2.1,19.2,0.3,27.7c-0.9,4.3-0.6,18,13.6,18.9c7.6,0.5,13.8-6.2,13.8-13.8c0-7.6-6.2-13.8-13.8-13.8c-0.3,0-0.6,0-0.9,0
	c3.1-5.4,10-12.7,24-12c30.5,1.3,34.2,31.6,34.2,43.4c0,20.5-7.7,41.4-19.9,55c-10.2,11.3-25,20.5-44,27.6
	c13.3-0.8,25.8-4.5,37.2-11.1c11.9-6.9,22-17.1,29.8-30.2c7.9-13.1,11.9-26.7,11.9-40.5C86.2,43.2,84.8,35.6,81.9,28.6z"/>
</svg>
