<?xml version="1.0" encoding="utf-8"?>
<!-- Generator: Adobe Illustrator 17.1.0, SVG Export Plug-In . SVG Version: 6.00 Build 0)  -->
<!DOCTYPE svg PUBLIC "-//W3C//DTD SVG 1.1//EN" "http://www.w3.org/Graphics/SVG/1.1/DTD/svg11.dtd">
<svg version="1.1" id="Layer_1" xmlns="http://www.w3.org/2000/svg" xmlns:xlink="http://www.w3.org/1999/xlink" x="0px" y="0px" viewBox="0 0 141.1 132.8" style="enable-background:new 0 0 141.1 132.8;" xml:space="preserve"
	>
<style type="text/css">
	.st0{fill:#ffffff;}
</style>
<polyline class="st0" points="125.6,132.8 125.6,0.5 136.6,0.5 136.6,132.8 "/>
<polyline class="st0" points="139.3,132.8 139.3,0.5 141.1,0.5 141.1,132.8 "/>
<circle class="st0" cx="105.9" cy="60.8" r="11"/>
<path class="st0" d="M7.3,132.4c13.3-0.8,25.8-4.5,37.2-11.1c11.9-6.9,22-17.1,29.8-30.2c7.9-13.1,11.9-26.7,11.9-40.5
	c0-7.9-1.4-15.5-4.3-22.5C77.1,16.3,69.9,8.2,60.5,4c-5.6-2.6-12.2-4-19.7-4C30.8,0,22,2.3,14.5,6.7C6.2,11.6,2.1,18.6,0.3,27.1
	c-0.9,4.3-0.6,18,13.6,18.9c7.6,0.5,13.8-6.2,13.8-13.8c0-7.6-6.2-13.8-13.8-13.8c-0.3,0-0.6,0-0.9,0c3.1-5.4,10-12.7,24-12
	C67.5,7.8,71.2,38,71.2,49.8c0,20.5-7.7,41.4-19.9,55C41,116,26.2,125.3,7.3,132.4"/>
</svg>
